<?xml version="1.0" encoding="utf-8"?>
<!-- Generator: Adobe Illustrator 23.0.1, SVG Export Plug-In . SVG Version: 6.00 Build 0)  -->
<svg version="1.1" id="Layer_1" xmlns="http://www.w3.org/2000/svg" xmlns:xlink="http://www.w3.org/1999/xlink" x="0px" y="0px"
	 viewBox="0 0 10.5 12.5" style="enable-background:new 0 0 10.5 12.5;" xml:space="preserve">
<style type="text/css">
	.st0{enable-background:new    ;}
	.st1{fill:#FFFFFF;}
</style>
<g class="st0">
	<path class="st1" d="M0.8,6.4C0.6,6.3,0.6,6.2,0.6,6s0.1-0.3,0.2-0.4l3.2-3.2C4,2.3,4.2,2.3,4.3,2.3s0.3,0.1,0.4,0.2L5.2,3
		c0.1,0.1,0.2,0.2,0.2,0.4S5.4,3.7,5.2,3.8L3,6l2.2,2.3c0.1,0.1,0.2,0.2,0.2,0.4S5.4,9,5.2,9.1L4.7,9.6C4.6,9.7,4.5,9.8,4.3,9.8
		S4,9.7,3.9,9.6L0.8,6.4z M5.2,5.6C5.1,5.7,5.1,5.9,5.1,6s0.1,0.3,0.2,0.4l3.2,3.2c0.1,0.1,0.2,0.2,0.4,0.2s0.3-0.1,0.4-0.2l0.5-0.5
		C9.9,9,9.9,8.8,9.9,8.7S9.9,8.4,9.8,8.3L7.5,6l2.2-2.2c0.1-0.1,0.2-0.2,0.2-0.4S9.9,3.1,9.8,3L9.2,2.4C9.1,2.3,9,2.3,8.8,2.3
		S8.5,2.3,8.4,2.4L5.2,5.6z"/>
</g>
</svg>
