<?xml version="1.0" encoding="utf-8"?>
<!-- Generator: Adobe Illustrator 23.0.1, SVG Export Plug-In . SVG Version: 6.00 Build 0)  -->
<svg version="1.1" id="Layer_1" xmlns="http://www.w3.org/2000/svg" xmlns:xlink="http://www.w3.org/1999/xlink" x="0px" y="0px"
	 viewBox="0 0 10.5 12.5" style="enable-background:new 0 0 10.5 12.5;" xml:space="preserve">
<style type="text/css">
	.st0{fill:#FFFFFF;}
</style>
<path class="st0" d="M2.1,10c-0.1,0.1-0.2,0.2-0.4,0.2S1.4,10.1,1.3,10L0.8,9.5C0.6,9.4,0.6,9.2,0.6,9.1s0.1-0.3,0.2-0.4L3,6.4
	L0.8,4.2C0.6,4.1,0.6,3.9,0.6,3.8s0.1-0.3,0.2-0.4l0.5-0.5c0.1-0.1,0.2-0.2,0.4-0.2S2,2.7,2.1,2.8L5.2,6c0.1,0.1,0.2,0.2,0.2,0.4
	S5.4,6.7,5.2,6.8L2.1,10z M6.6,2.8C6.5,2.7,6.3,2.7,6.2,2.7S5.9,2.7,5.8,2.8L5.2,3.4C5.1,3.5,5.1,3.6,5.1,3.8s0.1,0.3,0.2,0.4
	l2.2,2.3L5.2,8.7C5.1,8.8,5.1,8.9,5.1,9.1s0.1,0.3,0.2,0.4L5.8,10c0.1,0.1,0.2,0.2,0.4,0.2s0.3-0.1,0.4-0.2l3.2-3.2
	c0.1-0.1,0.2-0.2,0.2-0.4S9.9,6.1,9.8,6L6.6,2.8z"/>
</svg>
