<?xml version="1.0" encoding="utf-8"?>
<!-- Generator: Adobe Illustrator 23.0.1, SVG Export Plug-In . SVG Version: 6.00 Build 0)  -->
<svg version="1.1" id="Layer_1" focusable="false" xmlns="http://www.w3.org/2000/svg" xmlns:xlink="http://www.w3.org/1999/xlink"
	 x="0px" y="0px" viewBox="0 0 448 512" style="enable-background:new 0 0 448 512;" xml:space="preserve">
<style type="text/css">
	.st0{fill:#4C4C4C;}
</style>
<path class="st0" d="M32,464c0,26.5,21.5,48,48,48l0,0h288c26.5,0,48-21.5,48-48l0,0V128.1c0,0,0-0.1-0.1-0.1H32.1
	c0,0-0.1,0-0.1,0.1V464z M304,208c0-9.1,7.6-16.4,16.7-16c8.6,0.4,15.3,7.8,15.3,16.5v223c0,8.6-6.6,16.1-15.3,16.5
	c-9.2,0.4-16.7-6.9-16.7-16V208z M208,208c0-9.1,7.6-16.4,16.7-16c8.6,0.4,15.3,7.8,15.3,16.5v223c0,8.6-6.6,16.1-15.3,16.5
	c-9.2,0.4-16.7-6.9-16.7-16V208z M112,208c0-9.1,7.6-16.4,16.7-16c8.6,0.4,15.3,7.8,15.3,16.5v223c0,8.6-6.6,16.1-15.3,16.5
	c-9.2,0.4-16.7-6.9-16.7-16V208z"/>
<path class="st0" d="M432,32H312l-9.4-18.7C298.5,5.1,290.2,0,281.1,0H166.8c-9.1,0-17.4,5.1-21.4,13.3L136,32H16
	C7.2,32,0,39.2,0,48v32c0,8.8,7.2,16,16,16h416c8.8,0,16-7.2,16-16V48C448,39.2,440.8,32,432,32z"/>
</svg>
